# xmcd
#
# Track frame offsets: 
#        150
#        20027
#        34305
#        53927
#        75060
#        93317
#        107767
#        132072
#        148387
#        162385
#
# Disc length: 2391 seconds
#
# Revision: 0
# Processed by: cddbd v1.5.1PL0 Copyright (c) Steve Scherf et al.
# Submitted via: ExactAudioCopy v0.95a5
#
DISCID=8109550a
DTITLE=Rune Hauge - Taxi
DYEAR=1999
DGENRE=Blues
TTITLE0=Lost on the high seas
TTITLE1=Taxi
TTITLE2=When the well is dry
TTITLE3=New blood in town
TTITLE4=The bridge
TTITLE5=Ain't got you
TTITLE6=The barflies
TTITLE7=Time will tell
TTITLE8=Blindin' spot
TTITLE9=This is nature
EXTD=
EXTT0=
EXTT1=
EXTT2=
EXTT3=
EXTT4=
EXTT5=
EXTT6=
EXTT7=
EXTT8=
EXTT9=
PLAYORDER=
